ffmpeg started on 2025-06-05 at 21:01:12
Report written to "D:\Convert\FFMetrics\reports\psnr_report-6.txt"
Log level: 32
Command line:
ffmpeg -hide_banner -nostdin -i "G:\\\xc0\xed\xe8\xec\xe5\\\xce\xed\xe3\xee\xe8\xed\xe3\xe8\\!_36_\xce\xf1\xe5\xed\xfc_2024\\DreamCast\\\xcd\xe5\xe7\xed\xe0\xea\xee\xec\xf6\xfb \xe2 \xe4\xf0\xf3\xe3\xee\xe9 \xe6\xe8\xe7\xed\xe8\\[DC] Raise wa Tanin ga Ii - 11_Telegram_HEVC.mkv" -i "G:\\\xc0\xed\xe8\xec\xe5\\\xce\xed\xe3\xee\xe8\xed\xe3\xe8\\!_36_\xce\xf1\xe5\xed\xfc_2024\\DreamCast\\\xcd\xe5\xe7\xed\xe0\xea\xee\xec\xf6\xfb \xe2 \xe4\xf0\xf3\xe3\xee\xe9 \xe6\xe8\xe7\xed\xe8\\[DC] Raise wa Tanin ga Ii - 11_Telegram.mp4" -lavfi "[0:v]settb=AVTB,setpts=PTS-STARTPTS,format=pix_fmts=yuv420p10,fps=24000/1001,scale=1920:1080:flags=bicubic[main];[1:v]settb=AVTB,setpts=PTS-STARTPTS,format=pix_fmts=yuv420p,fps=24000/1001,scale=1920:1080:flags=bicubic[ref];[main][ref]psnr=eof_action=endall:stats_file='D\\:/Convert/FFMetrics/logs/psnr_logfile-6.txt'" -f null -
Input #0, matroska,webm, from 'G:\Аниме\Онгоинги\!_36_Осень_2024\DreamCast\Незнакомцы в другой жизни\[DC] Raise wa Tanin ga Ii - 11_Telegram_HEVC.mkv':
  Metadata:
    COMPATIBLE_BRANDS: isomiso2avc1mp41
    MAJOR_BRAND     : isom
    MINOR_VERSION   : 512
    ENCODER         : Lavf61.7.100
  Duration: 00:23:46.73, start: -0.021000, bitrate: 860 kb/s
  Stream #0:0: Video: hevc (Main 10), yuv420p10le(tv, bt709, progressive), 1920x1080 [SAR 1:1 DAR 16:9], 23.98 fps, 23.98 tbr, 1k tbn (default)
      Metadata:
        HANDLER_NAME    : VideoHandler
        VENDOR_ID       : [0][0][0][0]
        ENCODER         : Lavc61.19.100 libx265
        BPS             : 662901
        DURATION        : 00:23:46.508708333
        NUMBER_OF_FRAMES: 34202
        NUMBER_OF_BYTES : 118204366
        _STATISTICS_WRITING_APP: mkvpropedit v66.0.0 ('Josie') 64-bit
        _STATISTICS_WRITING_DATE_UTC: 2025-05-31 16:32:59
        _STATISTICS_TAGS: BPS DURATION NUMBER_OF_FRAMES NUMBER_OF_BYTES
  Stream #0:1: Audio: aac (LC), 48000 Hz, stereo, fltp (default)
      Metadata:
        HANDLER_NAME    : SoundHandler
        VENDOR_ID       : [0][0][0][0]
        ENCODER         : Lavc61.19.100 aac
        BPS             : 193152
        DURATION        : 00:23:46.730000000
        NUMBER_OF_FRAMES: 66879
        NUMBER_OF_BYTES : 34447011
        _STATISTICS_WRITING_APP: mkvpropedit v66.0.0 ('Josie') 64-bit
        _STATISTICS_WRITING_DATE_UTC: 2025-05-31 16:32:59
        _STATISTICS_TAGS: BPS DURATION NUMBER_OF_FRAMES NUMBER_OF_BYTES
Input #1, mov,mp4,m4a,3gp,3g2,mj2, from 'G:\Аниме\Онгоинги\!_36_Осень_2024\DreamCast\Незнакомцы в другой жизни\[DC] Raise wa Tanin ga Ii - 11_Telegram.mp4':
  Metadata:
    major_brand     : isom
    minor_version   : 512
    compatible_brands: isomiso2avc1mp41
    encoder         : Lavf61.1.100
  Duration: 00:23:46.68, start: 0.000000, bitrate: 3772 kb/s
  Stream #1:0[0x1](und): Video: h264 (High) (avc1 / 0x31637661), yuv420p(tv, bt709, progressive), 1920x1080 [SAR 1:1 DAR 16:9], 3625 kb/s, 23.98 fps, 23.98 tbr, 24k tbn (default)
      Metadata:
        handler_name    : VideoHandler
        vendor_id       : [0][0][0][0]
        encoder         : Lavc61.3.100 h264_qsv
  Stream #1:1[0x2](und): Audio: aac (HE-AACv2) (mp4a / 0x6134706D), 48000 Hz, stereo, fltp, 144 kb/s (default)
      Metadata:
        handler_name    : SoundHandler
        vendor_id       : [0][0][0][0]
Stream mapping:
  Stream #0:0 (hevc) -> settb:default
  Stream #1:0 (h264) -> settb:default
  psnr:default -> Stream #0:0 (wrapped_avframe)
  Stream #0:1 -> #0:1 (aac (native) -> pcm_s16le (native))
Output #0, null, to 'pipe:':
  Metadata:
    COMPATIBLE_BRANDS: isomiso2avc1mp41
    MAJOR_BRAND     : isom
    MINOR_VERSION   : 512
    encoder         : Lavf61.7.100
  Stream #0:0: Video: wrapped_avframe, yuv420p10le(tv, bt709, progressive), 1920x1080 [SAR 1:1 DAR 16:9], q=2-31, 200 kb/s, 23.98 fps, 23.98 tbn
      Metadata:
        encoder         : Lavc61.19.100 wrapped_avframe
  Stream #0:1: Audio: pcm_s16le, 48000 Hz, stereo, s16, 1536 kb/s (default)
      Metadata:
        HANDLER_NAME    : SoundHandler
        VENDOR_ID       : [0][0][0][0]
        _STATISTICS_TAGS: BPS DURATION NUMBER_OF_FRAMES NUMBER_OF_BYTES
        BPS             : 193152
        DURATION        : 00:23:46.730000000
        NUMBER_OF_FRAMES: 66879
        NUMBER_OF_BYTES : 34447011
        _STATISTICS_WRITING_APP: mkvpropedit v66.0.0 ('Josie') 64-bit
        _STATISTICS_WRITING_DATE_UTC: 2025-05-31 16:32:59
        encoder         : Lavc61.19.100 pcm_s16le
frame=  173 fps=0.0 q=-0.0 size=N/A time=00:00:07.21 bitrate=N/A speed=14.3x    frame=  422 fps=412 q=-0.0 size=N/A time=00:00:17.60 bitrate=N/A speed=17.2x    frame=  698 fps=451 q=-0.0 size=N/A time=00:00:29.11 bitrate=N/A speed=18.8x    frame=  958 fps=466 q=-0.0 size=N/A time=00:00:39.95 bitrate=N/A speed=19.4x    frame= 1223 fps=476 q=-0.0 size=N/A time=00:00:51.00 bitrate=N/A speed=19.9x    frame= 1479 fps=479 q=-0.0 size=N/A time=00:01:01.68 bitrate=N/A speed=  20x    frame= 1709 fps=473 q=-0.0 size=N/A time=00:01:11.27 bitrate=N/A speed=19.7x    frame= 1952 fps=472 q=-0.0 size=N/A time=00:01:21.41 bitrate=N/A speed=19.7x    frame= 2193 fps=471 q=-0.0 size=N/A time=00:01:31.46 bitrate=N/A speed=19.6x    frame= 2440 fps=472 q=-0.0 size=N/A time=00:01:41.76 bitrate=N/A speed=19.7x    frame= 2657 fps=467 q=-0.0 size=N/A time=00:01:50.81 bitrate=N/A speed=19.5x    frame= 2884 fps=465 q=-0.0 size=N/A time=00:02:00.28 bitrate=N/A speed=19.4x    frame= 3132 fps=466 q=-0.0 size=N/A time=00:02:10.63 bitrate=N/A speed=19.4x    frame= 3380 fps=468 q=-0.0 size=N/A time=00:02:20.97 bitrate=N/A speed=19.5x    frame= 3599 fps=465 q=-0.0 size=N/A time=00:02:30.10 bitrate=N/A speed=19.4x    frame= 3815 fps=462 q=-0.0 size=N/A time=00:02:39.11 bitrate=N/A speed=19.3x    frame= 4044 fps=461 q=-0.0 size=N/A time=00:02:48.66 bitrate=N/A speed=19.2x    frame= 4244 fps=457 q=-0.0 size=N/A time=00:02:57.01 bitrate=N/A speed=  19x    frame= 4474 fps=456 q=-0.0 size=N/A time=00:03:06.60 bitrate=N/A speed=  19x    frame= 4738 fps=458 q=-0.0 size=N/A time=00:03:17.61 bitrate=N/A speed=19.1x    frame= 5003 fps=461 q=-0.0 size=N/A time=00:03:28.66 bitrate=N/A speed=19.2x    frame= 5272 fps=464 q=-0.0 size=N/A time=00:03:39.88 bitrate=N/A speed=19.3x    frame= 5528 fps=465 q=-0.0 size=N/A time=00:03:50.56 bitrate=N/A speed=19.4x    frame= 5778 fps=466 q=-0.0 size=N/A time=00:04:00.99 bitrate=N/A speed=19.4x    frame= 5970 fps=462 q=-0.0 size=N/A time=00:04:08.99 bitrate=N/A speed=19.3x    frame= 6214 fps=463 q=-0.0 size=N/A time=00:04:19.17 bitrate=N/A speed=19.3x    frame= 6475 fps=464 q=-0.0 size=N/A time=00:04:30.06 bitrate=N/A speed=19.3x    frame= 6756 fps=467 q=-0.0 size=N/A time=00:04:41.78 bitrate=N/A speed=19.5x    frame= 7018 fps=468 q=-0.0 size=N/A time=00:04:52.70 bitrate=N/A speed=19.5x    frame= 7280 fps=470 q=-0.0 size=N/A time=00:05:03.63 bitrate=N/A speed=19.6x    frame= 7550 fps=472 q=-0.0 size=N/A time=00:05:14.89 bitrate=N/A speed=19.7x    frame= 7813 fps=473 q=-0.0 size=N/A time=00:05:25.86 bitrate=N/A speed=19.7x    frame= 8071 fps=474 q=-0.0 size=N/A time=00:05:36.62 bitrate=N/A speed=19.8x    frame= 8331 fps=474 q=-0.0 size=N/A time=00:05:47.47 bitrate=N/A speed=19.8x    frame= 8579 fps=475 q=-0.0 size=N/A time=00:05:57.81 bitrate=N/A speed=19.8x    frame= 8865 fps=477 q=-0.0 size=N/A time=00:06:09.74 bitrate=N/A speed=19.9x    frame= 9125 fps=478 q=-0.0 size=N/A time=00:06:20.58 bitrate=N/A speed=19.9x    frame= 9380 fps=478 q=-0.0 size=N/A time=00:06:31.22 bitrate=N/A speed=19.9x    frame= 9623 fps=478 q=-0.0 size=N/A time=00:06:41.35 bitrate=N/A speed=19.9x    frame= 9907 fps=480 q=-0.0 size=N/A time=00:06:53.20 bitrate=N/A speed=  20x    frame=10176 fps=481 q=-0.0 size=N/A time=00:07:04.42 bitrate=N/A speed=20.1x    frame=10454 fps=482 q=-0.0 size=N/A time=00:07:16.01 bitrate=N/A speed=20.1x    frame=10727 fps=483 q=-0.0 size=N/A time=00:07:27.40 bitrate=N/A speed=20.2x    frame=10990 fps=484 q=-0.0 size=N/A time=00:07:38.37 bitrate=N/A speed=20.2x    frame=11253 fps=484 q=-0.0 size=N/A time=00:07:49.34 bitrate=N/A speed=20.2x    frame=11477 fps=483 q=-0.0 size=N/A time=00:07:58.68 bitrate=N/A speed=20.2x    frame=11701 fps=482 q=-0.0 size=N/A time=00:08:08.02 bitrate=N/A speed=20.1x    frame=11955 fps=482 q=-0.0 size=N/A time=00:08:18.62 bitrate=N/A speed=20.1x    frame=12217 fps=483 q=-0.0 size=N/A time=00:08:29.55 bitrate=N/A speed=20.1x    frame=12479 fps=483 q=-0.0 size=N/A time=00:08:40.47 bitrate=N/A speed=20.2x    frame=12733 fps=484 q=-0.0 size=N/A time=00:08:51.07 bitrate=N/A speed=20.2x    frame=12958 fps=483 q=-0.0 size=N/A time=00:09:00.45 bitrate=N/A speed=20.1x    frame=13215 fps=483 q=-0.0 size=N/A time=00:09:11.17 bitrate=N/A speed=20.1x    frame=13479 fps=484 q=-0.0 size=N/A time=00:09:22.18 bitrate=N/A speed=20.2x    frame=13738 fps=484 q=-0.0 size=N/A time=00:09:32.98 bitrate=N/A speed=20.2x    frame=14022 fps=485 q=-0.0 size=N/A time=00:09:44.83 bitrate=N/A speed=20.2x    frame=14293 fps=486 q=-0.0 size=N/A time=00:09:56.13 bitrate=N/A speed=20.3x    frame=14553 fps=486 q=-0.0 size=N/A time=00:10:06.98 bitrate=N/A speed=20.3x    frame=14826 fps=487 q=-0.0 size=N/A time=00:10:18.36 bitrate=N/A speed=20.3x    frame=15078 fps=487 q=-0.0 size=N/A time=00:10:28.87 bitrate=N/A speed=20.3x    frame=15343 fps=487 q=-0.0 size=N/A time=00:10:39.93 bitrate=N/A speed=20.3x    frame=15611 fps=488 q=-0.0 size=N/A time=00:10:51.10 bitrate=N/A speed=20.3x    frame=15850 fps=488 q=-0.0 size=N/A time=00:11:01.07 bitrate=N/A speed=20.3x    frame=16118 fps=488 q=-0.0 size=N/A time=00:11:12.25 bitrate=N/A speed=20.4x    frame=16359 fps=488 q=-0.0 size=N/A time=00:11:22.30 bitrate=N/A speed=20.3x    frame=16619 fps=488 q=-0.0 size=N/A time=00:11:33.15 bitrate=N/A speed=20.4x    frame=16884 fps=488 q=-0.0 size=N/A time=00:11:44.20 bitrate=N/A speed=20.4x    frame=17138 fps=488 q=-0.0 size=N/A time=00:11:54.79 bitrate=N/A speed=20.4x    frame=17387 fps=488 q=-0.0 size=N/A time=00:12:05.18 bitrate=N/A speed=20.4x    frame=17672 fps=489 q=-0.0 size=N/A time=00:12:17.06 bitrate=N/A speed=20.4x    frame=17915 fps=489 q=-0.0 size=N/A time=00:12:27.20 bitrate=N/A speed=20.4x    frame=18173 fps=489 q=-0.0 size=N/A time=00:12:37.96 bitrate=N/A speed=20.4x    frame=18464 fps=490 q=-0.0 size=N/A time=00:12:50.10 bitrate=N/A speed=20.4x    frame=18744 fps=491 q=-0.0 size=N/A time=00:13:01.78 bitrate=N/A speed=20.5x    frame=19029 fps=492 q=-0.0 size=N/A time=00:13:13.66 bitrate=N/A speed=20.5x    frame=19309 fps=492 q=-0.0 size=N/A time=00:13:25.34 bitrate=N/A speed=20.5x    frame=19585 fps=493 q=-0.0 size=N/A time=00:13:36.85 bitrate=N/A speed=20.5x    frame=19820 fps=492 q=-0.0 size=N/A time=00:13:46.65 bitrate=N/A speed=20.5x    frame=20023 fps=491 q=-0.0 size=N/A time=00:13:55.12 bitrate=N/A speed=20.5x    frame=20227 fps=489 q=-0.0 size=N/A time=00:14:03.63 bitrate=N/A speed=20.4x    frame=20502 fps=490 q=-0.0 size=N/A time=00:14:15.10 bitrate=N/A speed=20.4x    frame=20735 fps=490 q=-0.0 size=N/A time=00:14:24.82 bitrate=N/A speed=20.4x    frame=20943 fps=488 q=-0.0 size=N/A time=00:14:33.49 bitrate=N/A speed=20.4x    frame=21122 fps=487 q=-0.0 size=N/A time=00:14:40.96 bitrate=N/A speed=20.3x    frame=21368 fps=487 q=-0.0 size=N/A time=00:14:51.22 bitrate=N/A speed=20.3x    frame=21607 fps=487 q=-0.0 size=N/A time=00:15:01.19 bitrate=N/A speed=20.3x    frame=21821 fps=486 q=-0.0 size=N/A time=00:15:10.11 bitrate=N/A speed=20.3x    frame=22048 fps=485 q=-0.0 size=N/A time=00:15:19.58 bitrate=N/A speed=20.2x    frame=22264 fps=484 q=-0.0 size=N/A time=00:15:28.59 bitrate=N/A speed=20.2x    frame=22495 fps=484 q=-0.0 size=N/A time=00:15:38.22 bitrate=N/A speed=20.2x    frame=22732 fps=484 q=-0.0 size=N/A time=00:15:48.11 bitrate=N/A speed=20.2x    frame=22980 fps=484 q=-0.0 size=N/A time=00:15:58.45 bitrate=N/A speed=20.2x    frame=23240 fps=484 q=-0.0 size=N/A time=00:16:09.30 bitrate=N/A speed=20.2x    frame=23495 fps=484 q=-0.0 size=N/A time=00:16:19.93 bitrate=N/A speed=20.2x    frame=23751 fps=484 q=-0.0 size=N/A time=00:16:30.61 bitrate=N/A speed=20.2x    frame=24003 fps=484 q=-0.0 size=N/A time=00:16:41.12 bitrate=N/A speed=20.2x    frame=24230 fps=484 q=-0.0 size=N/A time=00:16:50.59 bitrate=N/A speed=20.2x    frame=24479 fps=484 q=-0.0 size=N/A time=00:17:00.97 bitrate=N/A speed=20.2x    frame=24740 fps=484 q=-0.0 size=N/A time=00:17:11.86 bitrate=N/A speed=20.2x    frame=25007 fps=484 q=-0.0 size=N/A time=00:17:23.00 bitrate=N/A speed=20.2x    frame=25262 fps=484 q=-0.0 size=N/A time=00:17:33.63 bitrate=N/A speed=20.2x    frame=25475 fps=484 q=-0.0 size=N/A time=00:17:42.51 bitrate=N/A speed=20.2x    frame=25755 fps=484 q=-0.0 size=N/A time=00:17:54.19 bitrate=N/A speed=20.2x    frame=26045 fps=485 q=-0.0 size=N/A time=00:18:06.29 bitrate=N/A speed=20.2x    frame=26329 fps=486 q=-0.0 size=N/A time=00:18:18.13 bitrate=N/A speed=20.2x    frame=26573 fps=485 q=-0.0 size=N/A time=00:18:28.31 bitrate=N/A speed=20.2x    frame=26821 fps=485 q=-0.0 size=N/A time=00:18:38.65 bitrate=N/A speed=20.2x    frame=27070 fps=485 q=-0.0 size=N/A time=00:18:49.08 bitrate=N/A speed=20.2x    frame=27335 fps=486 q=-0.0 size=N/A time=00:19:00.09 bitrate=N/A speed=20.3x    frame=27612 fps=486 q=-0.0 size=N/A time=00:19:11.65 bitrate=N/A speed=20.3x    frame=27868 fps=486 q=-0.0 size=N/A time=00:19:22.32 bitrate=N/A speed=20.3x    frame=28123 fps=486 q=-0.0 size=N/A time=00:19:32.96 bitrate=N/A speed=20.3x    frame=28372 fps=486 q=-0.0 size=N/A time=00:19:43.39 bitrate=N/A speed=20.3x    frame=28604 fps=486 q=-0.0 size=N/A time=00:19:53.02 bitrate=N/A speed=20.3x    frame=28873 fps=486 q=-0.0 size=N/A time=00:20:04.24 bitrate=N/A speed=20.3x    frame=29099 fps=486 q=-0.0 size=N/A time=00:20:13.67 bitrate=N/A speed=20.3x    frame=29350 fps=486 q=-0.0 size=N/A time=00:20:24.13 bitrate=N/A speed=20.3x    frame=29612 fps=486 q=-0.0 size=N/A time=00:20:35.06 bitrate=N/A speed=20.3x    frame=29866 fps=486 q=-0.0 size=N/A time=00:20:45.66 bitrate=N/A speed=20.3x    frame=30124 fps=486 q=-0.0 size=N/A time=00:20:56.42 bitrate=N/A speed=20.3x    frame=30383 fps=486 q=-0.0 size=N/A time=00:21:07.22 bitrate=N/A speed=20.3x    frame=30637 fps=486 q=-0.0 size=N/A time=00:21:17.81 bitrate=N/A speed=20.3x    frame=30899 fps=486 q=-0.0 size=N/A time=00:21:28.74 bitrate=N/A speed=20.3x    frame=31142 fps=486 q=-0.0 size=N/A time=00:21:38.88 bitrate=N/A speed=20.3x    frame=31397 fps=486 q=-0.0 size=N/A time=00:21:49.51 bitrate=N/A speed=20.3x    frame=31634 fps=486 q=-0.0 size=N/A time=00:21:59.40 bitrate=N/A speed=20.3x    frame=31887 fps=486 q=-0.0 size=N/A time=00:22:09.95 bitrate=N/A speed=20.3x    frame=32140 fps=486 q=-0.0 size=N/A time=00:22:20.50 bitrate=N/A speed=20.3x    frame=32395 fps=486 q=-0.0 size=N/A time=00:22:31.14 bitrate=N/A speed=20.3x    frame=32607 fps=486 q=-0.0 size=N/A time=00:22:39.98 bitrate=N/A speed=20.3x    frame=32809 fps=485 q=-0.0 size=N/A time=00:22:48.40 bitrate=N/A speed=20.2x    frame=33031 fps=485 q=-0.0 size=N/A time=00:22:57.66 bitrate=N/A speed=20.2x    frame=33233 fps=484 q=-0.0 size=N/A time=00:23:06.09 bitrate=N/A speed=20.2x    frame=33397 fps=483 q=-0.0 size=N/A time=00:23:12.93 bitrate=N/A speed=20.1x    frame=33601 fps=482 q=-0.0 size=N/A time=00:23:21.44 bitrate=N/A speed=20.1x    frame=33763 fps=481 q=-0.0 size=N/A time=00:23:28.19 bitrate=N/A speed=20.1x    frame=33981 fps=480 q=-0.0 size=N/A time=00:23:37.29 bitrate=N/A speed=  20x    [Parsed_psnr_10 @ 0000014af030bf80] PSNR y:48.959659 u:50.716694 v:49.991971 average:49.372665 min:38.163149 max:inf
[out#0/null @ 0000014ae31ef080] video:14696KiB audio:267516KiB subtitle:0KiB other streams:0KiB global headers:0KiB muxing overhead: unknown
frame=34202 fps=481 q=-0.0 Lsize=N/A time=00:23:46.50 bitrate=N/A speed=20.1x    
